<svg xmlns="http://www.w3.org/2000/svg" width="43.6" height="43.6" viewBox="0 0 43.6 43.6"><defs><style>.a{fill:#ffa64d;}.b{fill:#333;}</style></defs><g transform="translate(7.735 0.703)"><path class="a" d="M427.516,19.252h2.11V8H424Z" transform="translate(-394.465 -8)"/><rect class="a" width="7" height="17" transform="translate(20.265 -0.103)"/><path class="a" d="M105.581,147.252h-2.11a2.11,2.11,0,0,0,0-4.219h-2.11c0-4.219-4.219-7.032-4.219-7.032l-.624,1.455a9.432,9.432,0,0,1-4.954,4.954,2.4,2.4,0,0,0-1.454,2.206v2.636a2.11,2.11,0,1,0,0,4.219h15.471a2.11,2.11,0,1,0,0-4.219Z" transform="translate(-88 -124.748)"/></g><path class="b" d="M30.857,139.83H27.738a2.78,2.78,0,0,0-2.126-4.189,2.8,2.8,0,0,0-2.406-4.25H21.758c-.412-4.141-4.316-6.8-4.491-6.914l-.7-.469-.957,2.232a8.69,8.69,0,0,1-4.585,4.585,3.1,3.1,0,0,0-1.88,2.852v2.033a2.78,2.78,0,0,0-1.719,4.119H2.11A2.112,2.112,0,0,0,0,141.939v7.032a2.11,2.11,0,1,0,4.219,0v-4.923H5.626v7.735a4.928,4.928,0,0,0,4.923,4.923H24.613a4.928,4.928,0,0,0,4.923-4.923V147.9a3.535,3.535,0,0,1,1.029-2.484l1.845-1.845a2.195,2.195,0,0,0-1.552-3.747ZM2.813,142.643v6.329a.7.7,0,1,1-1.406,0v-7.032a.7.7,0,0,1,.7-.7H5.626v1.406Zm5.626-4.219a1.408,1.408,0,0,1,1.406-1.406h2.813V135.61h-2.11v-1.933a1.7,1.7,0,0,1,1.028-1.56,10.089,10.089,0,0,0,5.323-5.323l.264-.617a8.837,8.837,0,0,1,3.179,5.214H16.174V132.8h7.032a1.406,1.406,0,0,1,0,2.813H21.1v1.406h4.219a1.406,1.406,0,0,1,0,2.813H9.845A1.408,1.408,0,0,1,8.439,138.423Zm22.976,4.159-1.845,1.845a4.885,4.885,0,0,0-1.441,3.478v3.88a3.52,3.52,0,0,1-3.516,3.516H10.548a3.52,3.52,0,0,1-3.516-3.516V141.236H30.857a.789.789,0,0,1,.558,1.346Z" transform="translate(0 -113.107)"/><path class="b" d="M328.174,0H312V18.284h7.111L320.475,43.6h2.74l1.355-25.91,1.332-5.032h2.271Zm-1.406,1.406V5.626H324.12l-.44-1.406h1.681V2.813h-2.12l-.44-1.406ZM324.56,7.032h2.208V8.439H325Zm-5.527,2.813v1.406h-5.626V9.845Zm-5.626-1.406V7.032h5.626V8.439Zm5.626-7.032V2.813h-1.406V4.219h1.406V5.626h-5.626V4.219h2.813V2.813h-2.813V1.406Zm-5.626,15.471V15.471h1.406V14.064h-1.406V12.658h5.626v1.406h-2.813v1.406h2.813v1.406Zm8.4,25.316-1.29-23.91h2.627l-1.265,23.91Zm1.522-25.316h-2.852L320.44,1.406h.887l2.627,8.406v.033h.011l.665,2.126Zm2.547-5.626-.44-1.406h1.329v1.406Z" transform="translate(-284.574)"/><rect class="b" width="2" height="1" transform="translate(18 22.6)"/></svg>