<svg xmlns="http://www.w3.org/2000/svg" width="43.303" height="43.385" viewBox="0 0 43.303 43.385"><defs><style>.a{fill:#ffa64d;}.b{fill:#333;}</style></defs><g transform="translate(-0.472)"><g transform="translate(5.361 0.781)"><path class="a" d="M58.285,47.339l9.362,3.511V8.944l-9.362,3.511a2.793,2.793,0,0,0-1.813,2.616V44.723A2.793,2.793,0,0,0,58.285,47.339Z" transform="translate(-56.472 -8.944)"/><path class="a" d="M307.266,10.341l-2.794-1.4V33.389h2.794Z" transform="translate(-282.82 -8.944)"/></g><g transform="translate(0.472)"><path class="b" d="M211.964,384.944a3.492,3.492,0,1,0,3.492,3.492A3.5,3.5,0,0,0,211.964,384.944Zm0,5.587a2.1,2.1,0,1,1,2.1-2.1A2.1,2.1,0,0,1,211.964,390.531Z" transform="translate(-190.313 -351.337)"/><path class="b" d="M339.964,384.944a3.492,3.492,0,1,0,3.492,3.492A3.5,3.5,0,0,0,339.964,384.944Zm0,5.587a2.1,2.1,0,1,1,2.1-2.1A2.1,2.1,0,0,1,339.964,390.531Z" transform="translate(-307.138 -351.337)"/><path class="b" d="M290.567,325.135a2.1,2.1,0,1,0-2.1-2.1A2.1,2.1,0,0,0,290.567,325.135Zm0-2.794a.7.7,0,1,1-.7.7A.7.7,0,0,1,290.567,322.341Z" transform="translate(-263.328 -292.924)"/><path class="b" d="M43.775,40.592a11.184,11.184,0,0,1-4.685-1.049A6.283,6.283,0,0,0,34,30.855V28.718a3.48,3.48,0,0,0-1.419-2.794H32.6V7.561A8.235,8.235,0,0,0,28.023.156L27.711,0,27.4.156a8.233,8.233,0,0,0-4.577,7.4V25.925h.022a3.48,3.48,0,0,0-1.419,2.794v2.137a6.279,6.279,0,0,0-4.191,2.3V.082H5.361A4.894,4.894,0,0,0,.472,4.971V38.5a4.895,4.895,0,0,0,4.889,4.889H17.234V41.042a6.273,6.273,0,0,0,10.477-1.076,6.271,6.271,0,0,0,10.681.8,12.592,12.592,0,0,0,5.383,1.22ZM24.219,7.561a6.836,6.836,0,0,1,2.794-5.532v20.4h1.4V2.029A6.836,6.836,0,0,1,31.2,7.561V25.3a3.489,3.489,0,0,0-.7-.071h-2.1v-1.4h-1.4v1.4h-2.1a3.489,3.489,0,0,0-.7.071Zm.7,19.062H30.5a2.1,2.1,0,0,1,2.1,2.1v2.137a6.294,6.294,0,0,0-4.889,3.378,6.294,6.294,0,0,0-4.889-3.378V28.718A2.1,2.1,0,0,1,24.917,26.623ZM9.213,39.195h6.625v2.484ZM6.059,9.861h6.984v-1.4H6.059V6.908A2.091,2.091,0,0,1,6.471,5.67h9.367V8.464h-1.4v1.4h1.4v2.794H6.059Zm9.778-5.587H9.214l6.624-2.484ZM6.059,14.051h9.778v2.794H6.059Zm0,4.191h9.778v2.794H6.059Zm0,4.191h9.778v2.794H6.059Zm0,4.191h9.778v2.794H6.059ZM6.471,37.8a2.093,2.093,0,0,1-.411-1.238V35h1.4v-1.4h-1.4V30.814h9.778v2.794H8.853V35h6.984V37.8Zm-4.6.7V4.971A3.5,3.5,0,0,1,5.361,1.479h7.323L6.929,3.637a3.509,3.509,0,0,0-2.266,3.27V36.56a3.511,3.511,0,0,0,2.266,3.271l5.755,2.158H5.361A3.5,3.5,0,0,1,1.869,38.5Zm20.255,3.492A4.889,4.889,0,1,1,27.013,37.1,4.895,4.895,0,0,1,22.123,41.989Zm11.175,0A4.889,4.889,0,1,1,38.188,37.1,4.895,4.895,0,0,1,33.3,41.989Z" transform="translate(-0.472)"/></g></g></svg>