<svg xmlns="http://www.w3.org/2000/svg" width="43" height="43" viewBox="0 0 43 43"><defs><style>.a{fill:#ffa64d;}.b{fill:#333;}</style></defs><g transform="translate(0 -0.017)"><path class="a" d="M153.02,40A15.883,15.883,0,0,0,144,42.795V55.264a9.02,9.02,0,1,0,18.039,0V42.795A15.883,15.883,0,0,0,153.02,40Z" transform="translate(-131.511 -36.531)"/><path class="b" d="M111.59,35.123l-.3-.207a16.647,16.647,0,0,0-18.825,0l-.3.206v3.643A13.9,13.9,0,0,0,88,48.651v23.59h1.388V48.652a12.511,12.511,0,0,1,2.775-7.821v7.128a9.714,9.714,0,1,0,19.427,0V40.83a12.512,12.512,0,0,1,2.775,7.821v23.59h1.388V48.652a13.9,13.9,0,0,0-4.163-9.886ZM110.2,47.958a8.269,8.269,0,0,1-1.688,5,11.169,11.169,0,0,0-1.37-.9l-.661,1.22a9.96,9.96,0,0,1,1.106.713,8.285,8.285,0,0,1-11.43,0,9.676,9.676,0,0,1,9.063-1.279l.479-1.3a11.05,11.05,0,0,0-10.466,1.545,8.272,8.272,0,0,1-1.685-5v-12.1a15.26,15.26,0,0,1,16.652,0Z" transform="translate(-80.368 -29.225)"/><rect class="b" width="1" height="2" transform="translate(38 0.017)"/><rect class="b" width="1.388" height="2.081" transform="matrix(-0.707, 0.707, -0.707, -0.707, 37.874, 2.202)"/><rect class="b" width="3" height="1" transform="translate(34 4.017)"/><rect class="b" width="2.081" height="1.388" transform="translate(37.874 6.126) rotate(135)"/><rect class="b" width="1" height="3" transform="translate(38 6.017)"/><rect class="b" width="1.388" height="2.081" transform="matrix(-0.707, 0.707, -0.707, -0.707, 42.288, 6.618)"/><rect class="b" width="2" height="1" transform="translate(41 4.017)"/><rect class="b" width="2.081" height="1.388" transform="translate(42.288 1.71) rotate(135)"/><rect class="b" width="1" height="2" transform="translate(4 7.017)"/><rect class="b" width="1.388" height="2.081" transform="matrix(-0.707, 0.707, -0.707, -0.707, 3.181, 9.139)"/><rect class="b" width="2" height="1" transform="translate(0 11.017)"/><rect class="b" width="2.081" height="1.388" transform="translate(3.181 13.063) rotate(135)"/><rect class="b" width="1" height="2" transform="translate(4 14.017)"/><rect class="b" width="1.388" height="2.081" transform="matrix(-0.707, 0.707, -0.707, -0.707, 7.597, 13.556)"/><rect class="b" width="3" height="1" transform="translate(6 11.017)"/><rect class="b" width="2.081" height="1.388" transform="translate(7.597 8.648) rotate(135)"/><rect class="b" width="2" height="1" transform="translate(40 19.017)"/><rect class="b" width="2" height="1" transform="translate(40 21.017)"/><rect class="b" width="1" height="1" transform="translate(42 20.017)"/><rect class="b" width="1" height="1" transform="translate(39 20.017)"/><rect class="b" width="1" height="1" transform="translate(11 0.017)"/><rect class="b" width="1" height="1" transform="translate(11 3.017)"/><rect class="b" width="2" height="2" transform="translate(12 1.017)"/><rect class="b" width="2" height="2" transform="translate(9 1.017)"/><rect class="b" width="1" height="1" transform="translate(14 29.017)"/><rect class="b" width="1" height="1" transform="translate(14 32.017)"/><rect class="b" width="1" height="2" transform="translate(15 30.017)"/><rect class="b" width="2" height="2" transform="translate(12 30.017)"/></g></svg>