<svg xmlns="http://www.w3.org/2000/svg" width="43.055" height="43.055" viewBox="0 0 43.055 43.055"><defs><style>.a{fill:#ffa64d;}.b{fill:#333;}</style></defs><g transform="translate(1.389 0.694)"><rect class="a" width="19" height="3" transform="translate(21.617 31.36)"/><path class="a" d="M34.055,8H17.389A1.388,1.388,0,0,0,16,9.389v2.778H35.444V9.389A1.388,1.388,0,0,0,34.055,8Z" transform="translate(-16 -8)"/></g><path class="b" d="M22.222,5.555a1.384,1.384,0,0,0-.694-1.2V2.083A2.086,2.086,0,0,0,19.444,0H2.778A2.086,2.086,0,0,0,.694,2.083V4.36A1.384,1.384,0,0,0,0,5.555v9.135a6.219,6.219,0,0,0,2.346,4.88l1.147.917L4.7,39.8a3.478,3.478,0,0,0,3.465,3.255h5.892A3.478,3.478,0,0,0,17.522,39.8l1.207-19.311,1.147-.917a6.219,6.219,0,0,0,2.346-4.88ZM20.139,2.083V4.167H18.75V1.389h.694A.7.7,0,0,1,20.139,2.083ZM4.861,4.167V1.389H6.25V4.167ZM7.639,1.389H9.028V4.167H7.639Zm2.778,0h1.389V4.167H10.416Zm2.778,0h1.389V4.167H13.194Zm2.778,0h1.389V4.167H15.972Zm-13.194,0h.694V4.167H2.083V2.083A.7.7,0,0,1,2.778,1.389ZM14.057,41.666H8.165a2.086,2.086,0,0,1-2.079-1.953l-.052-.825H16.187l-.051.825A2.086,2.086,0,0,1,14.057,41.666Zm4.952-23.179-1.627,1.3L16.275,37.5H5.947L4.84,19.789l-1.627-1.3a4.838,4.838,0,0,1-1.824-3.8V9.722H18.055V8.333H1.389V5.555H20.833V8.333H19.444V9.722h1.389v4.969A4.838,4.838,0,0,1,19.009,18.486Z"/><path class="b" d="M91.472,168A3.476,3.476,0,0,0,88,171.472v6.944a3.472,3.472,0,1,0,6.944,0v-6.944A3.476,3.476,0,0,0,91.472,168Zm0,1.389a2.086,2.086,0,0,1,2.083,2.083v.694H89.389v-.694A2.086,2.086,0,0,1,91.472,169.389Zm2.083,4.167v2.778H89.389v-2.778ZM91.472,180.5a2.086,2.086,0,0,1-2.083-2.083v-.694h4.167v.694A2.086,2.086,0,0,1,91.472,180.5Z" transform="translate(-80.361 -153.417)"/><path class="b" d="M272.666,208v12.5h-1.389V208h-4.167v12.5h-1.389V208h-4.167v12.5h-1.389V208H256v15.972a6.254,6.254,0,0,0,4.167,5.885V233h12.5v-3.142a6.254,6.254,0,0,0,4.167-5.885V208Zm-4.167,1.389h1.389V220.5H268.5Zm-5.555,0h1.389V220.5h-1.389Zm-5.555,0h1.389V220.5h-1.389Zm13.889,22.222h-9.722v-1.43a6.2,6.2,0,0,0,.694.041h8.333a6.2,6.2,0,0,0,.694-.041Zm4.167-7.639a4.867,4.867,0,0,1-4.861,4.861H262.25a4.867,4.867,0,0,1-4.861-4.861v-2.083h18.055Zm-1.389-3.472V209.389h1.389V220.5Z" transform="translate(-233.778 -189.945)"/><rect class="a" width="21" height="3" transform="translate(1.006 10.055)"/></svg>